<?xml version="1.0" encoding="UTF-8" standalone="no"?>
<svg width="32" height="32" viewBox="0 0 96 96" version="1.1" xmlns="http://www.w3.org/2000/svg">
  <defs>
    <radialGradient id="iconGradient" cx="0.5" cy="0.5" r="0.5">
      <stop offset="0" style="stop-color:rgb(122,76,162);stop-opacity:1"/>
      <stop offset="0.5" style="stop-color:rgb(109,77,155);stop-opacity:1"/>
      <stop offset="1" style="stop-color:rgb(71,79,132);stop-opacity:1"/>
    </radialGradient>
  </defs>
  
  <circle cx="48" cy="48" r="44" fill="white"/>
  
  <g transform="translate(48, 48) scale(0.8)">
    <path d="M12.398,13.988C8.277,15.906 3.767,17.223 -1.022,17.803C-9.282,18.803 -17.263,17.475 -24.239,14.357L-19.197,-6.181L7.24,-7.02L12.398,13.988ZM-28.878,11.931C-39.121,5.744 -46.429,-4.609 -47.929,-16.995C-50.594,-39.006 -33.906,-59.168 -10.683,-61.98C12.553,-64.794 33.569,-49.197 36.234,-27.186C38.137,-11.467 30.174,3.307 17.006,11.495L11.814,-7.165L22.922,-7.518C22.922,-7.518 21.865,-11.993 20.058,-12.067C20.058,-12.067 16.094,-12.23 10.628,-12.427L8.028,-21.769C12.452,-21.968 25.206,-24.313 26.149,-30.913C27.04,-37.15 26.371,-37.725 26.371,-37.725C25.226,-37.08 7.156,-28.585 -5.211,-28.496C-10.641,-28.459 -15.46,-28.707 -19.675,-29.142C-27.973,-30.021 -34.04,-31.581 -37.901,-33.092C-37.902,-32.87 -37.968,-32.349 -37.919,-31.21C-37.757,-27.463 -33.138,-25.868 -32.437,-25.682C-27.22,-24.3 -23.582,-23.466 -19.491,-22.886L-22.189,-13.163C-25.734,-13.138 -28.387,-13.034 -29.344,-12.8C-34.057,-11.648 -34.428,-7.192 -34.657,-6.691L-23.891,-7.032L-28.878,11.931ZM-4.237,-21.707C-1.417,-21.614 1.325,-21.597 3.895,-21.645L6.119,-12.588C2.864,-12.698 -0.651,-12.802 -4.237,-12.898L-4.237,-21.707ZM-15.459,-22.411C-13.175,-22.19 -10.607,-22.009 -7.512,-21.843L-7.512,-12.976C-11.099,-13.062 -14.598,-13.131 -17.731,-13.157L-15.459,-22.411Z" fill="url(#iconGradient)" fill-rule="nonzero"/>
  </g>
</svg>