<?xml version="1.0" encoding="UTF-8" standalone="no"?>
<!DOCTYPE svg PUBLIC "-//W3C//DTD SVG 1.1//EN" "http://www.w3.org/Graphics/SVG/1.1/DTD/svg11.dtd">
<svg width="16" height="16" viewBox="0 0 84 84" version="1.1" xmlns="http://www.w3.org/2000/svg" xmlns:xlink="http://www.w3.org/1999/xlink" xml:space="preserve" xmlns:serif="http://www.serif.com/" style="fill-rule:evenodd;clip-rule:evenodd;stroke-linejoin:round;stroke-miterlimit:2;">
    <defs>
        <radialGradient id="_Radial1" cx="0" cy="0" r="1" gradientUnits="userSpaceOnUse" gradientTransform="matrix(82.163,0,0,-82.163,122.245,550.907)"><stop offset="0" style="stop-color:#8b5cf6;stop-opacity:1"/><stop offset="1" style="stop-color:#3b82f6;stop-opacity:1"/></radialGradient>
    </defs>
    <g transform="matrix(1,0,0,1,-0.000325212,-0.00167585)">
        <g id="Full-Logo-Colour" serif:id="Full Logo Colour" transform="matrix(1,0,0,1,-178.724,-690.388)">
            <g>
                <g id="path248-5">
                    <g id="Main-House" serif:id="Main House" transform="matrix(0.352778,0,0,-0.352778,-34.1914,948.007)">
                        <g transform="matrix(2.83465,0,0,-2.83465,295.371,1965.72)">
                            <path d="M193.493,476.061C193.493,498.236 174.504,516.245 151.099,516.245C127.706,516.245 108.715,498.236 108.715,476.061C108.715,453.889 127.706,435.879 151.099,435.879C174.504,435.879 193.493,453.889 193.493,476.061" style="fill:white;"/>
                        </g>
                        <g id="New-house" serif:id="New house" transform="matrix(2.83465,0,0,-2.83465,377.438,2186.39)">
                            <path d="M140.398,589.988C136.277,591.906 131.767,593.223 126.978,593.803C118.718,594.803 110.737,593.475 103.761,590.357L108.803,569.819L135.24,568.98L140.398,589.988ZM99.122,587.931C88.879,581.744 81.571,571.391 80.071,559.005C77.406,536.994 94.094,516.832 117.317,514.02C140.553,511.206 161.569,526.803 164.234,548.814C166.137,564.533 158.174,579.307 145.006,587.495L139.814,568.835L150.922,568.482C150.922,568.482 149.865,565.007 148.058,564.933C148.058,564.933 144.094,564.77 138.628,564.573L136.028,555.231C140.452,555.032 153.206,552.687 154.149,546.087C155.04,539.85 154.371,539.275 154.371,539.275C153.226,539.92 135.156,548.415 122.789,548.504C117.359,548.541 112.54,548.293 108.325,547.858C100.027,546.979 93.96,545.419 90.099,543.908C90.098,544.13 90.032,544.651 90.081,545.79C90.243,549.537 94.862,551.132 95.563,551.318C100.78,552.7 104.418,553.534 108.509,554.114L105.811,563.837C102.266,563.862 99.613,563.966 98.656,564.2C93.943,565.352 93.572,569.808 93.343,570.309L104.109,569.968L99.122,587.931ZM123.763,555.293C126.583,555.386 129.325,555.403 131.895,555.355L134.119,564.412C130.864,564.302 127.349,564.198 123.763,564.102L123.763,555.293ZM112.541,554.589C114.825,554.810 117.393,554.991 120.488,555.157L120.488,564.024C116.901,563.938 113.402,563.869 110.269,563.843L112.541,554.589Z" style="fill:url(#_Radial1);fill-rule:nonzero;"/>
                        </g>
                    </g>
                </g>
            </g>
        </g>
    </g>
</svg>