<?xml version="1.0" encoding="UTF-8" standalone="no"?>
<!DOCTYPE svg PUBLIC "-//W3C//DTD SVG 1.1//EN" "http://www.w3.org/Graphics/SVG/1.1/DTD/svg11.dtd">
<svg width="100%" height="100%" viewBox="0 0 413 84" version="1.1" xmlns="http://www.w3.org/2000/svg" xmlns:xlink="http://www.w3.org/1999/xlink" xml:space="preserve" xmlns:serif="http://www.serif.com/" style="fill-rule:evenodd;clip-rule:evenodd;stroke-linejoin:round;stroke-miterlimit:2;">
    <g transform="matrix(1,0,0,1,-0.0281237,-0.00167585)">
        <g transform="matrix(1,0,0,1,-70.0089,-254.509)">
            <g transform="matrix(1,0,0,1,70.0089,254.509)">
                <rect x="-0.775" y="-4.445" width="717.919" height="104.776"/>
            </g>
            <g id="Full-Logo-Colour" serif:id="Full Logo Colour" transform="matrix(1,0,0,1,-108.715,-435.879)">
                <g id="path248-5" transform="matrix(0.264583,0,0,0.264583,739.546,408.028)">
                    <path d="M-1301.58,1200.62C-1310.03,1200.62 -1317.72,1202.41 -1324.67,1205.95C-1331.59,1209.49 -1338.15,1215.02 -1344.35,1222.52L-1344.35,1222.38C-1344.57,1222.66 -1344.7,1222.77 -1344.73,1222.59C-1347.03,1204.89 -1369.35,1203.73 -1374.01,1203.73L-1385.35,1203.73L-1385.35,1332.06L-1344.35,1332.06L-1344.35,1268.9C-1344.35,1257.23 -1341.91,1248.09 -1337.01,1241.48C-1332.13,1234.87 -1325.42,1231.57 -1316.88,1231.57C-1313.33,1231.57 -1310.2,1232.32 -1307.48,1233.84C-1304.73,1235.32 -1302.55,1237.38 -1300.91,1240.03C-1299.72,1242.03 -1298.88,1245.13 -1298.38,1249.33C-1297.86,1253.53 -1297.61,1261.18 -1297.61,1272.26L-1297.61,1308.95C-1297.61,1309.03 -1297.59,1309.09 -1297.59,1309.17C-1297.59,1326.5 -1285.93,1330.93 -1280.08,1332.06L-1256.35,1332.06L-1256.35,1253.92C-1256.35,1236.57 -1260.2,1223.34 -1267.86,1214.26C-1275.55,1205.17 -1286.79,1200.62 -1301.58,1200.62ZM-1465.6,1200.62C-1487.74,1200.62 -1505.15,1206.65 -1517.81,1218.66C-1530.46,1230.64 -1536.77,1247.1 -1536.77,1268.02C-1536.77,1289.34 -1530.34,1305.9 -1517.45,1317.7C-1504.58,1329.48 -1486.54,1335.36 -1463.33,1335.36C-1461.1,1335.36 -1458.87,1335.31 -1456.64,1335.21C-1456.63,1335.21 -1456.61,1335.2 -1456.6,1335.2C-1446.38,1334.63 -1424.6,1332 -1413.19,1320.11C-1404.29,1310.98 -1405.08,1297.32 -1405.08,1295.51L-1405.08,1292.65C-1414.65,1297.86 -1423.97,1301.73 -1433.02,1304.28C-1442.08,1306.83 -1450.91,1308.1 -1459.52,1308.1C-1470.23,1308.1 -1478.55,1305.71 -1484.5,1300.92C-1490.47,1296.11 -1493.94,1288.88 -1494.94,1279.23L-1435.08,1279.23C-1434.01,1279.23 -1401.42,1279.05 -1403.31,1248.59C-1404.21,1234.15 -1411.9,1224.19 -1417.34,1218.74C-1418.23,1217.85 -1419.05,1217.09 -1419.78,1216.43C-1419.8,1216.42 -1419.81,1216.4 -1419.83,1216.38C-1431.59,1205.89 -1446.86,1200.62 -1465.6,1200.62ZM-1465.82,1227.9C-1458.48,1227.9 -1452.54,1230.3 -1447.99,1235.08C-1446.06,1237.1 -1444.57,1239.41 -1443.45,1241.99C-1443.38,1242.22 -1443.32,1242.44 -1443.23,1242.68C-1439.77,1252.15 -1448.31,1253.67 -1451.75,1253.92L-1494.47,1253.92C-1493.27,1245.53 -1490.19,1239.09 -1485.23,1234.61C-1480.25,1230.14 -1473.76,1227.9 -1465.82,1227.9ZM-1127.9,1153.79C-1128.88,1153.81 -1148.37,1154.5 -1148.49,1176.85L-1148.49,1222.52C-1154.14,1215.02 -1160.39,1209.49 -1167.23,1205.95C-1174.05,1202.41 -1181.89,1200.62 -1190.73,1200.62C-1206.57,1200.62 -1219.57,1206.91 -1229.72,1219.48C-1239.88,1232.05 -1244.96,1248.23 -1244.96,1268.02C-1244.96,1287.79 -1239.88,1303.95 -1229.72,1316.51C-1219.57,1329.09 -1206.57,1335.36 -1190.73,1335.36C-1181.82,1335.36 -1173.97,1333.61 -1167.18,1330.1C-1160.37,1326.59 -1154.14,1321.06 -1148.49,1313.52L-1148.49,1313.58C-1148.35,1313.42 -1148.25,1313.36 -1148.23,1313.5C-1144.89,1332.06 -1125.69,1332.06 -1113.11,1332.06L-1107.23,1332.06L-1107.23,1153.79L-1127.9,1153.79ZM-1175.5,1230.42C-1166.72,1230.42 -1160.03,1233.65 -1155.41,1240.08C-1150.8,1246.48 -1148.49,1255.81 -1148.49,1268.02C-1148.49,1280.25 -1150.8,1289.56 -1155.41,1295.96C-1160.03,1302.37 -1166.72,1305.57 -1175.5,1305.57C-1184.21,1305.57 -1190.88,1302.37 -1195.53,1295.96C-1200.16,1289.56 -1202.45,1280.25 -1202.45,1268.02C-1202.45,1255.81 -1200.16,1246.48 -1195.53,1240.08C-1190.88,1233.65 -1184.21,1230.42 -1175.5,1230.42ZM-630.714,1200.62C-608.649,1200.62 -591.399,1206.59 -578.968,1218.5C-566.545,1230.41 -560.324,1246.92 -560.324,1268.02C-560.324,1289.09 -566.545,1305.59 -578.968,1317.5C-591.399,1329.41 -608.649,1335.36 -630.714,1335.36C-652.854,1335.36 -670.165,1329.41 -682.667,1317.5C-695.166,1305.59 -701.41,1289.09 -701.41,1268.02C-701.41,1246.92 -695.166,1230.41 -682.667,1218.5C-670.165,1206.59 -652.854,1200.62 -630.714,1200.62M-630.714,1229.96C-639.8,1229.96 -646.747,1233.24 -651.528,1239.77C-656.275,1246.28 -658.652,1255.7 -658.652,1268.02C-658.652,1280.31 -656.275,1289.74 -651.528,1296.27C-646.747,1302.78 -639.8,1306.03 -630.714,1306.03C-621.768,1306.03 -614.934,1302.78 -610.21,1296.27C-605.455,1289.74 -603.082,1280.31 -603.082,1268.02C-603.082,1255.7 -605.455,1246.28 -610.21,1239.77C-614.934,1233.24 -621.768,1229.96 -630.714,1229.96M-834.989,1200.62C-812.924,1200.62 -795.674,1206.59 -783.24,1218.5C-770.817,1230.41 -764.599,1246.92 -764.599,1268.02C-764.599,1289.09 -770.817,1305.59 -783.24,1317.5C-795.674,1329.41 -812.924,1335.36 -834.989,1335.36C-857.13,1335.36 -874.44,1329.41 -886.939,1317.5C-899.441,1305.59 -905.685,1289.09 -905.685,1268.02C-905.685,1246.92 -899.441,1230.41 -886.939,1218.5C-874.44,1206.59 -857.13,1200.62 -834.989,1200.62M-834.989,1229.96C-844.079,1229.96 -851.022,1233.24 -855.799,1239.77C-860.554,1246.28 -862.927,1255.7 -862.927,1268.02C-862.927,1280.31 -860.554,1289.74 -855.799,1296.27C-851.022,1302.78 -844.079,1306.03 -834.989,1306.03C-826.043,1306.03 -819.21,1302.78 -814.481,1296.27C-809.734,1289.74 -807.357,1280.31 -807.357,1268.02C-807.357,1255.7 -809.734,1246.28 -814.481,1239.77C-819.21,1233.24 -826.043,1229.96 -834.989,1229.96M-753.429,1153.78L-753.429,1187.2L-712.426,1187.2L-712.426,1153.78L-753.429,1153.78ZM-732.778,1203.72C-733.996,1203.71 -753.429,1203.83 -753.429,1226.95L-753.429,1329.79C-753.429,1340.07 -754.902,1346.99 -757.819,1350.49C-760.711,1354 -766.056,1355.76 -773.831,1355.76L-780.962,1355.76L-780.962,1382.73L-760.665,1382.73C-745.003,1382.73 -733.058,1378.19 -724.822,1369.14C-716.56,1360.08 -712.426,1346.96 -712.426,1329.79L-712.426,1203.72L-732.778,1203.72ZM-1553.34,1201.67C-1556.97,1201.53 -1559.65,1201.97 -1559.81,1202.04C-1559.82,1202.04 -1559.85,1202.05 -1559.85,1202.05C-1564,1203.01 -1567.81,1204.46 -1571.27,1206.41C-1575.46,1208.78 -1579.36,1212.03 -1582.97,1216.12C-1583.39,1216.6 -1583.83,1217.13 -1584.26,1217.66C-1584.53,1217.99 -1584.82,1218.31 -1585.09,1218.66C-1588.03,1222.57 -1589.59,1226.2 -1590.2,1227.51C-1592.13,1213.25 -1607.19,1209.07 -1618.61,1207.96L-1627.38,1207.62C-1628.68,1207.64 -1629.71,1207.66 -1630.4,1207.7L-1630.4,1309.25C-1630.4,1309.35 -1630.39,1309.43 -1630.39,1309.53C-1630.39,1332.66 -1609.61,1332.06 -1609.61,1332.06L-1589.39,1332.06L-1589.39,1272.93C-1589.39,1260.33 -1586.55,1250.65 -1580.87,1243.9C-1575.16,1237.12 -1567.03,1233.73 -1556.5,1233.73C-1552.92,1233.73 -1549.36,1234.14 -1545.81,1234.97C-1542.27,1235.77 -1538.68,1237.01 -1535.07,1238.68L-1535.18,1211.05C-1539.01,1203.67 -1547.4,1201.89 -1553.34,1201.67ZM-1070.38,1160.97L-1070.38,1295.14C-1070.38,1332.84 -1036.97,1332.06 -1036.97,1332.06L-1023.84,1332.06C-998.203,1332.06 -978.952,1330.23 -966.11,1326.53C-953.278,1322.81 -942.278,1316.51 -933.113,1307.63C-925.096,1299.92 -919.141,1291 -915.241,1280.88C-911.356,1270.76 -909.406,1259.25 -909.406,1246.34C-909.406,1233.6 -911.356,1222.19 -915.241,1212.09C-919.141,1202.01 -925.096,1193.11 -933.113,1185.39C-942.202,1176.55 -953.12,1170.26 -965.849,1166.55C-978.552,1162.82 -997.893,1160.97 -1023.84,1160.97L-1070.38,1160.97ZM-1026.27,1194.32L-1010.42,1194.32C-992.346,1194.32 -978.58,1198.77 -969.105,1207.65C-959.599,1216.51 -954.854,1229.39 -954.854,1246.34C-954.854,1263.38 -959.626,1276.37 -969.155,1285.32C-978.656,1294.24 -992.425,1298.7 -1010.42,1298.7L-1010.94,1298.7C-1026.12,1296.86 -1026.23,1282.31 -1026.23,1282.31L-1026.27,1282.63L-1026.27,1194.32ZM-1724.37,1153.4C-1756.69,1153.4 -1761.43,1177.6 -1762.14,1184.73L-1762.18,1186.76L-1704.38,1186.76L-1704.38,1313.34C-1704.38,1329 -1691.05,1332.06 -1684.57,1332.06L-1660.27,1332.06L-1660.27,1186.76L-1603.57,1186.76L-1603.57,1153.4L-1724.37,1153.4Z" style="fill:white;fill-opacity:0.68;fill-rule:nonzero;"/>
                </g>
                <g id="New-house" serif:id="New house" transform="matrix(1,0,0,1,98.9604,176.697)">
                    <g id="Main-House" serif:id="Main House">
                        <g id="New-house1" serif:id="New house">
                            <path d="M140.398,589.988C136.277,591.906 131.767,593.223 126.978,593.803C118.718,594.803 110.737,593.475 103.761,590.357L108.803,569.819L135.24,568.98L140.398,589.988ZM99.122,587.931C88.879,581.744 81.571,571.391 80.071,559.005C77.406,536.994 94.094,516.832 117.317,514.02C140.553,511.206 161.569,526.803 164.234,548.814C166.137,564.533 158.174,579.307 145.006,587.495L139.814,568.835L150.922,568.482C150.922,568.482 149.865,565.007 148.058,564.933C148.058,564.933 144.094,564.77 138.628,564.573L136.028,555.231C140.452,555.032 153.206,552.687 154.149,546.087C155.04,539.85 154.371,539.275 154.371,539.275C153.226,539.92 135.156,548.415 122.789,548.504C117.359,548.541 112.54,548.293 108.325,547.858C100.027,546.979 93.96,545.419 90.099,543.908C90.098,544.13 90.032,544.651 90.081,545.79C90.243,549.537 94.862,551.132 95.563,551.318C100.78,552.7 104.418,553.534 108.509,554.114L105.811,563.837C102.266,563.862 99.613,563.966 98.656,564.2C93.943,565.352 93.572,569.808 93.343,570.309L104.109,569.968L99.122,587.931ZM123.763,555.293C126.583,555.386 129.325,555.403 131.895,555.355L134.119,564.412C130.864,564.302 127.349,564.198 123.763,564.102L123.763,555.293ZM112.541,554.589C114.825,554.81 117.393,554.991 120.488,555.157L120.488,564.024C116.901,563.938 113.402,563.869 110.269,563.843L112.541,554.589Z" style="fill:white;fill-opacity:0.68;fill-rule:nonzero;"/>
                        </g>
                    </g>
                </g>
            </g>
        </g>
    </g>
</svg>